<?xml version="1.0" encoding="iso-8859-1"?>
<!-- Uploaded to: SVG Repo, www.svgrepo.com, Generator: SVG Repo Mixer Tools -->
<svg height="800px" width="800px" version="1.1" id="Layer_1" xmlns="http://www.w3.org/2000/svg" xmlns:xlink="http://www.w3.org/1999/xlink" 
	 viewBox="0 0 512 512" xml:space="preserve">
<path style="fill:#EC5565;" d="M0,256.006C0,397.402,114.606,512.004,255.996,512C397.394,512.004,512,397.402,512,256.006
	C512.009,114.61,397.394,0,255.996,0C114.606,0,0,114.614,0,256.006z"/>
<path style="fill:#D94453;" d="M512,256.005c0-3.073-0.124-6.116-0.231-9.163c-0.043-0.049-0.078-0.1-0.125-0.146l-1.45-1.424
	c-0.054-0.053-111.558-111.585-111.612-111.638l-13.75-13.511c-22.198-21.792-61.632-29.701-84.976-6.754l-61.879,60.8
	c-2.621,2.579-2.66,6.796-0.078,9.418c0.291,0.298,21.735,21.441,21.76,21.474c-6.555-3.169-13.382-5.092-20.316-5.585
	c-17.386-1.173-34.881,6.442-50.627,22.198l-75.454,75.564c-22.992,23.022-22.992,61.936,0,84.972c0,0,13.716,13.741,13.731,13.753
	c0,0,114.64,114.642,114.65,114.649l1.043,1.044c4.409,0.226,8.846,0.343,13.31,0.343C397.394,512.004,512,397.401,512,256.005z"/>
<g>
	<path style="fill:#F6F6F6;" d="M264.176,324.716l-54.881,54.953c-12.54,12.562-27.506,19.483-42.146,19.483
		c-11.701,0-22.621-4.478-30.738-12.611l-13.717-13.74c-17.594-17.626-17.594-48.537,0-66.149l75.454-75.565
		c13.1-13.119,26.562-19.262,40.247-18.322c13.997,0.995,27.805,9.687,38.881,24.481c2.205,2.94,6.374,3.551,9.327,1.337
		c2.94-2.205,3.545-6.378,1.34-9.324c-13.43-17.932-30.692-28.508-48.598-29.782c-17.386-1.174-34.881,6.443-50.628,22.198
		l-75.454,75.565c-22.992,23.021-22.992,61.935,0,84.973l13.717,13.74c10.641,10.654,24.905,16.521,40.17,16.521
		c18.198,0,36.514-8.309,51.578-23.392l54.881-54.953c2.595-2.602,2.595-6.819-0.006-9.418
		C270.999,322.114,266.778,322.108,264.176,324.716z"/>
	<path style="fill:#F6F6F6;" d="M398.583,133.636l-13.749-13.513c-22.198-21.792-61.633-29.701-84.976-6.754l-61.879,60.8
		c-2.621,2.579-2.66,6.797-0.078,9.418c2.57,2.621,6.784,2.663,9.418,0.084l61.879-60.803c17.762-17.467,48.624-10.598,66.297,6.757
		l13.756,13.513c8.663,8.508,13.243,18.543,13.243,29.021c0,10.481-4.579,20.521-13.249,29.035l-82.511,81.067
		c-7.811,7.681-18.497,11.252-30.101,10.124c-11.714-1.164-22.621-7.246-28.475-15.867c-2.062-3.047-6.205-3.835-9.249-1.773
		c-3.044,2.065-3.838,6.208-1.77,9.252c8.13,11.984,22.4,20.075,38.179,21.643c1.879,0.186,3.746,0.279,5.587,0.279
		c13.444-0.003,25.77-4.927,35.168-14.156l82.511-81.067c11.109-10.917,17.229-24.602,17.229-38.537
		C415.812,158.227,409.692,144.546,398.583,133.636z"/>
</g>
</svg>