<svg width="844" height="500" viewBox="0 0 844 500" fill="none" xmlns="http://www.w3.org/2000/svg">
<g clip-path="url(#clip0_58_2)">
<rect width="844" height="500" rx="15" fill="#38808A"/>
<rect x="806" y="29" width="38" height="536" fill="#255359"/>
<rect width="844" height="31" fill="#1D4348"/>
<circle cx="824.229" cy="16" r="6" fill="#F24F39"/>
<circle cx="806.302" cy="16" r="6" fill="#F2D539"/>
<path d="M794 16C794 19.3137 791.314 22 788 22C784.686 22 782 19.3137 782 16C782 12.6863 784.686 10 788 10C791.314 10 794 12.6863 794 16Z" fill="#3CF239"/>
<path d="M300 156C300 142.745 310.745 132 324 132H520C533.255 132 544 142.745 544 156V345C544 358.255 533.255 369 520 369H324C310.745 369 300 358.255 300 345V156Z" fill="#2A2331"/>
<rect x="315.252" y="154.252" width="213.453" height="32.0188" stroke="#FFF500" stroke-width="2" stroke-dasharray="26.93 26.93"/>
<circle cx="314.5" cy="154.5" r="3.25195" fill="white" stroke="black" stroke-width="0.496108"/>
<circle cx="314.5" cy="185.684" r="3.25195" fill="white" stroke="black" stroke-width="0.496108"/>
<circle cx="528.535" cy="154.5" r="3.25195" fill="white" stroke="black" stroke-width="0.496108"/>
<circle cx="528.535" cy="185.684" r="3.25195" fill="white" stroke="black" stroke-width="0.496108"/>
<path d="M321.81 180.087V161.972H328.393C330.366 161.972 332.016 162.38 333.343 163.197C334.669 163.996 335.664 165.085 336.328 166.463C336.991 167.823 337.323 169.337 337.323 171.004C337.323 172.841 336.957 174.44 336.226 175.801C335.494 177.162 334.457 178.216 333.113 178.965C331.786 179.713 330.213 180.087 328.393 180.087H321.81ZM333.776 171.004C333.776 169.831 333.564 168.802 333.138 167.917C332.713 167.016 332.101 166.318 331.301 165.825C330.502 165.315 329.532 165.059 328.393 165.059H325.331V177H328.393C329.549 177 330.527 176.745 331.327 176.235C332.126 175.707 332.73 174.993 333.138 174.091C333.564 173.173 333.776 172.144 333.776 171.004ZM347.804 180.215C346.478 180.215 345.27 179.96 344.181 179.449C343.11 178.939 342.183 178.25 341.4 177.383C340.635 176.498 340.04 175.512 339.614 174.423C339.189 173.318 338.977 172.186 338.977 171.03C338.977 169.822 339.198 168.674 339.64 167.585C340.099 166.48 340.72 165.502 341.502 164.651C342.302 163.784 343.237 163.103 344.309 162.61C345.398 162.1 346.588 161.845 347.881 161.845C349.191 161.845 350.381 162.108 351.453 162.636C352.542 163.163 353.469 163.869 354.234 164.753C354.999 165.638 355.595 166.624 356.02 167.713C356.445 168.802 356.658 169.924 356.658 171.081C356.658 172.271 356.437 173.42 355.995 174.525C355.552 175.614 354.931 176.592 354.132 177.459C353.35 178.31 352.414 178.982 351.325 179.475C350.254 179.968 349.08 180.215 347.804 180.215ZM342.549 171.03C342.549 171.812 342.668 172.569 342.906 173.301C343.144 174.032 343.484 174.687 343.926 175.265C344.386 175.826 344.938 176.277 345.585 176.617C346.248 176.941 346.997 177.102 347.83 177.102C348.68 177.102 349.437 176.932 350.101 176.592C350.764 176.235 351.317 175.767 351.759 175.189C352.201 174.593 352.533 173.938 352.754 173.224C352.992 172.493 353.111 171.761 353.111 171.03C353.111 170.247 352.984 169.499 352.729 168.785C352.491 168.053 352.142 167.407 351.683 166.845C351.24 166.267 350.688 165.816 350.024 165.493C349.378 165.153 348.646 164.983 347.83 164.983C346.963 164.983 346.197 165.162 345.534 165.519C344.887 165.859 344.343 166.318 343.901 166.896C343.459 167.475 343.118 168.121 342.88 168.836C342.659 169.55 342.549 170.281 342.549 171.03ZM362.88 168.453V180.087H359.359V161.972H362.165L371.529 173.913V161.998H375.05V180.087H372.116L362.88 168.453ZM377.346 168.019L377.933 164.906H376.913V161.462H380.332V164.957L379.439 168.019H377.346ZM397.075 165.059H391.284V180.087H387.788V165.059H381.997V161.972H397.075V165.059ZM419.479 180.087V168.198L414.835 177.051H412.871L408.227 168.198V180.087H404.706V161.972H408.482L413.84 172.28L419.249 161.972H423V180.087H419.479ZM426.782 180.087V161.972H430.303V180.087H426.782ZM444.875 166.718C444.756 166.599 444.535 166.437 444.211 166.233C443.905 166.029 443.523 165.833 443.063 165.646C442.621 165.459 442.136 165.298 441.609 165.162C441.082 165.008 440.546 164.932 440.002 164.932C439.049 164.932 438.326 165.11 437.833 165.468C437.357 165.825 437.118 166.327 437.118 166.973C437.118 167.466 437.272 167.858 437.578 168.147C437.884 168.436 438.343 168.682 438.955 168.887C439.568 169.091 440.333 169.312 441.252 169.55C442.442 169.839 443.471 170.196 444.339 170.622C445.223 171.03 445.895 171.574 446.355 172.254C446.831 172.918 447.069 173.802 447.069 174.908C447.069 175.877 446.89 176.711 446.533 177.408C446.176 178.089 445.683 178.641 445.053 179.067C444.424 179.492 443.71 179.807 442.91 180.011C442.111 180.198 441.26 180.291 440.359 180.291C439.457 180.291 438.556 180.198 437.654 180.011C436.753 179.824 435.885 179.56 435.052 179.22C434.218 178.863 433.453 178.437 432.756 177.944L434.312 174.908C434.465 175.061 434.737 175.265 435.128 175.52C435.52 175.758 435.996 176.005 436.557 176.26C437.118 176.498 437.731 176.702 438.394 176.873C439.058 177.043 439.729 177.128 440.41 177.128C441.362 177.128 442.085 176.966 442.579 176.643C443.072 176.32 443.318 175.86 443.318 175.265C443.318 174.721 443.123 174.296 442.732 173.989C442.34 173.683 441.796 173.42 441.099 173.198C440.401 172.96 439.576 172.705 438.624 172.433C437.484 172.11 436.532 171.753 435.766 171.361C435.001 170.953 434.431 170.443 434.057 169.831C433.683 169.218 433.495 168.453 433.495 167.534C433.495 166.293 433.785 165.255 434.363 164.422C434.958 163.571 435.758 162.933 436.761 162.508C437.765 162.066 438.879 161.845 440.104 161.845C440.954 161.845 441.754 161.938 442.502 162.125C443.267 162.312 443.982 162.559 444.645 162.865C445.309 163.171 445.904 163.503 446.431 163.86L444.875 166.718ZM460.522 166.718C460.403 166.599 460.182 166.437 459.859 166.233C459.553 166.029 459.17 165.833 458.711 165.646C458.268 165.459 457.784 165.298 457.256 165.162C456.729 165.008 456.193 164.932 455.649 164.932C454.696 164.932 453.973 165.11 453.48 165.468C453.004 165.825 452.766 166.327 452.766 166.973C452.766 167.466 452.919 167.858 453.225 168.147C453.531 168.436 453.99 168.682 454.603 168.887C455.215 169.091 455.981 169.312 456.899 169.55C458.09 169.839 459.119 170.196 459.986 170.622C460.871 171.03 461.543 171.574 462.002 172.254C462.478 172.918 462.716 173.802 462.716 174.908C462.716 175.877 462.538 176.711 462.181 177.408C461.823 178.089 461.33 178.641 460.701 179.067C460.071 179.492 459.357 179.807 458.558 180.011C457.758 180.198 456.908 180.291 456.006 180.291C455.105 180.291 454.203 180.198 453.302 180.011C452.4 179.824 451.533 179.56 450.699 179.22C449.866 178.863 449.1 178.437 448.403 177.944L449.959 174.908C450.112 175.061 450.384 175.265 450.776 175.52C451.167 175.758 451.643 176.005 452.204 176.26C452.766 176.498 453.378 176.702 454.042 176.873C454.705 177.043 455.377 177.128 456.057 177.128C457.01 177.128 457.733 176.966 458.226 176.643C458.719 176.32 458.966 175.86 458.966 175.265C458.966 174.721 458.77 174.296 458.379 173.989C457.988 173.683 457.443 173.42 456.746 173.198C456.049 172.96 455.224 172.705 454.271 172.433C453.132 172.11 452.179 171.753 451.414 171.361C450.648 170.953 450.078 170.443 449.704 169.831C449.33 169.218 449.143 168.453 449.143 167.534C449.143 166.293 449.432 165.255 450.01 164.422C450.606 163.571 451.405 162.933 452.409 162.508C453.412 162.066 454.526 161.845 455.751 161.845C456.601 161.845 457.401 161.938 458.149 162.125C458.915 162.312 459.629 162.559 460.292 162.865C460.956 163.171 461.551 163.503 462.078 163.86L460.522 166.718ZM479.237 180.215C477.91 180.215 476.703 179.96 475.614 179.449C474.543 178.939 473.615 178.25 472.833 177.383C472.068 176.498 471.472 175.512 471.047 174.423C470.622 173.318 470.409 172.186 470.409 171.03C470.409 169.822 470.63 168.674 471.073 167.585C471.532 166.48 472.153 165.502 472.935 164.651C473.735 163.784 474.67 163.103 475.742 162.61C476.83 162.1 478.021 161.845 479.314 161.845C480.623 161.845 481.814 162.108 482.886 162.636C483.974 163.163 484.901 163.869 485.667 164.753C486.432 165.638 487.027 166.624 487.453 167.713C487.878 168.802 488.091 169.924 488.091 171.081C488.091 172.271 487.869 173.42 487.427 174.525C486.985 175.614 486.364 176.592 485.565 177.459C484.782 178.31 483.847 178.982 482.758 179.475C481.686 179.968 480.513 180.215 479.237 180.215ZM473.981 171.03C473.981 171.812 474.1 172.569 474.338 173.301C474.577 174.032 474.917 174.687 475.359 175.265C475.818 175.826 476.371 176.277 477.017 176.617C477.681 176.941 478.429 177.102 479.263 177.102C480.113 177.102 480.87 176.932 481.533 176.592C482.197 176.235 482.75 175.767 483.192 175.189C483.634 174.593 483.966 173.938 484.187 173.224C484.425 172.493 484.544 171.761 484.544 171.03C484.544 170.247 484.416 169.499 484.161 168.785C483.923 168.053 483.575 167.407 483.115 166.845C482.673 166.267 482.12 165.816 481.457 165.493C480.81 165.153 480.079 164.983 479.263 164.983C478.395 164.983 477.63 165.162 476.966 165.519C476.32 165.859 475.776 166.318 475.333 166.896C474.891 167.475 474.551 168.121 474.313 168.836C474.092 169.55 473.981 170.281 473.981 171.03ZM498.471 180.215C497.025 180.215 495.792 179.977 494.772 179.5C493.768 179.007 492.952 178.335 492.322 177.485C491.71 176.634 491.259 175.673 490.97 174.602C490.681 173.513 490.536 172.382 490.536 171.208V161.972H494.057V171.208C494.057 171.957 494.125 172.688 494.261 173.403C494.414 174.1 494.661 174.729 495.001 175.291C495.341 175.852 495.792 176.294 496.354 176.617C496.915 176.941 497.612 177.102 498.446 177.102C499.296 177.102 500.002 176.941 500.563 176.617C501.142 176.277 501.592 175.826 501.916 175.265C502.256 174.704 502.502 174.074 502.655 173.377C502.809 172.663 502.885 171.94 502.885 171.208V161.972H506.381V171.208C506.381 172.45 506.227 173.615 505.921 174.704C505.632 175.792 505.164 176.753 504.518 177.587C503.889 178.403 503.072 179.05 502.069 179.526C501.065 179.985 499.866 180.215 498.471 180.215ZM523.475 165.059H517.683V180.087H514.188V165.059H508.396V161.972H523.475V165.059Z" fill="white"/>
<rect x="342" y="216" width="162" height="32" stroke="#FFF500" stroke-width="2" stroke-dasharray="26.93 26.93"/>
<circle cx="342.5" cy="216.5" r="3.25195" fill="white" stroke="black" stroke-width="0.496108"/>
<circle cx="341.5" cy="247.5" r="3.25195" fill="white" stroke="black" stroke-width="0.496108"/>
<circle cx="503.5" cy="215.5" r="3.25195" fill="white" stroke="black" stroke-width="0.496108"/>
<circle cx="503.5" cy="247.5" r="3.25195" fill="white" stroke="black" stroke-width="0.496108"/>
<path d="M356.654 238.913V242H346.295V238.913H349.918V231.182C349.765 231.386 349.527 231.599 349.204 231.82C348.881 232.024 348.515 232.22 348.107 232.407C347.698 232.594 347.29 232.747 346.882 232.866C346.474 232.985 346.108 233.045 345.785 233.045V229.855C346.091 229.855 346.457 229.762 346.882 229.575C347.324 229.371 347.758 229.132 348.183 228.86C348.625 228.588 349 228.324 349.306 228.069C349.629 227.797 349.833 227.585 349.918 227.431H353.414V238.913H356.654ZM366.225 230.238H357.984V227.125H371.609L362.628 245.24H358.75L366.225 230.238ZM394.821 223.885V242H391.326V234.269H383.11V242H379.589V223.885H383.11V231.208H391.326V223.885H394.821ZM404.219 242.255C403.13 242.255 402.152 242.077 401.284 241.719C400.417 241.345 399.677 240.835 399.065 240.188C398.469 239.542 398.01 238.802 397.687 237.969C397.364 237.135 397.202 236.259 397.202 235.341C397.202 234.405 397.364 233.521 397.687 232.687C398.01 231.854 398.469 231.114 399.065 230.468C399.677 229.821 400.417 229.319 401.284 228.962C402.152 228.588 403.13 228.401 404.219 228.401C405.307 228.401 406.277 228.588 407.127 228.962C407.995 229.319 408.735 229.821 409.347 230.468C409.959 231.114 410.419 231.854 410.725 232.687C411.048 233.521 411.209 234.405 411.209 235.341C411.209 236.259 411.048 237.135 410.725 237.969C410.419 238.802 409.959 239.542 409.347 240.188C408.752 240.835 408.02 241.345 407.153 241.719C406.285 242.077 405.307 242.255 404.219 242.255ZM400.723 235.341C400.723 236.123 400.876 236.821 401.182 237.433C401.489 238.028 401.905 238.496 402.433 238.836C402.96 239.176 403.555 239.347 404.219 239.347C404.865 239.347 405.452 239.176 405.979 238.836C406.506 238.479 406.923 238.003 407.229 237.407C407.552 236.795 407.714 236.098 407.714 235.315C407.714 234.55 407.552 233.861 407.229 233.249C406.923 232.636 406.506 232.16 405.979 231.82C405.452 231.48 404.865 231.31 404.219 231.31C403.555 231.31 402.96 231.488 402.433 231.845C401.905 232.186 401.489 232.662 401.182 233.274C400.876 233.869 400.723 234.558 400.723 235.341ZM413.39 236.999V228.631H416.808V236.259C416.808 237.28 416.996 238.054 417.37 238.581C417.744 239.091 418.297 239.347 419.028 239.347C419.47 239.347 419.904 239.261 420.329 239.091C420.772 238.904 421.171 238.632 421.529 238.275C421.903 237.918 422.217 237.467 422.473 236.923V228.631H425.891V238.173C425.891 238.53 425.951 238.785 426.07 238.938C426.206 239.091 426.419 239.185 426.708 239.219V242C426.368 242.051 426.079 242.085 425.84 242.102C425.619 242.136 425.415 242.153 425.228 242.153C424.616 242.153 424.114 242.017 423.723 241.745C423.349 241.456 423.127 241.064 423.059 240.571L422.983 239.5C422.388 240.401 421.622 241.09 420.687 241.566C419.751 242.026 418.722 242.255 417.599 242.255C416.222 242.255 415.176 241.813 414.461 240.928C413.747 240.027 413.39 238.717 413.39 236.999ZM437.249 231.59C436.212 231.59 435.285 231.794 434.468 232.203C433.652 232.594 433.065 233.164 432.708 233.912V242H429.289V228.631H432.427V231.488C432.904 230.57 433.507 229.847 434.239 229.319C434.97 228.792 435.744 228.503 436.561 228.452C436.748 228.452 436.892 228.452 436.994 228.452C437.096 228.452 437.181 228.461 437.249 228.478V231.59ZM444.08 242.255C442.94 242.255 441.852 242.068 440.814 241.694C439.777 241.32 438.884 240.767 438.135 240.035L439.36 237.816C440.159 238.462 440.942 238.938 441.707 239.244C442.49 239.551 443.238 239.704 443.952 239.704C444.616 239.704 445.143 239.585 445.534 239.347C445.943 239.108 446.147 238.751 446.147 238.275C446.147 237.952 446.036 237.705 445.815 237.535C445.594 237.348 445.271 237.186 444.845 237.05C444.437 236.914 443.935 236.761 443.34 236.591C442.354 236.268 441.529 235.953 440.865 235.647C440.202 235.341 439.7 234.958 439.36 234.499C439.037 234.023 438.875 233.419 438.875 232.687C438.875 231.803 439.096 231.046 439.539 230.417C439.998 229.77 440.627 229.268 441.427 228.911C442.243 228.554 443.196 228.375 444.284 228.375C445.237 228.375 446.138 228.529 446.989 228.835C447.839 229.124 448.613 229.6 449.31 230.264L447.933 232.432C447.252 231.905 446.606 231.522 445.994 231.284C445.381 231.029 444.76 230.901 444.131 230.901C443.774 230.901 443.434 230.944 443.11 231.029C442.804 231.114 442.549 231.259 442.345 231.463C442.158 231.65 442.064 231.922 442.064 232.279C442.064 232.602 442.149 232.857 442.32 233.045C442.507 233.215 442.779 233.368 443.136 233.504C443.51 233.64 443.961 233.793 444.488 233.963C445.56 234.269 446.461 234.584 447.193 234.907C447.941 235.23 448.502 235.63 448.877 236.106C449.251 236.565 449.438 237.203 449.438 238.02C449.438 239.347 448.953 240.384 447.984 241.133C447.014 241.881 445.713 242.255 444.08 242.255ZM457.867 223.375H461.286V237.714C461.286 238.326 461.388 238.743 461.592 238.964C461.796 239.168 462.077 239.27 462.434 239.27C462.706 239.27 462.987 239.236 463.276 239.168C463.565 239.1 463.821 239.015 464.042 238.913L464.501 241.515C464.042 241.736 463.506 241.906 462.894 242.026C462.281 242.145 461.728 242.204 461.235 242.204C460.163 242.204 459.33 241.923 458.735 241.362C458.156 240.784 457.867 239.967 457.867 238.913V223.375ZM472.19 242.255C471.119 242.255 470.149 242.077 469.282 241.719C468.414 241.345 467.674 240.843 467.062 240.214C466.45 239.568 465.973 238.836 465.633 238.02C465.31 237.186 465.149 236.31 465.149 235.392C465.149 234.116 465.429 232.951 465.99 231.896C466.569 230.842 467.385 230 468.44 229.371C469.511 228.724 470.77 228.401 472.216 228.401C473.679 228.401 474.929 228.724 475.967 229.371C477.004 230 477.795 230.842 478.339 231.896C478.901 232.934 479.181 234.057 479.181 235.264C479.181 235.468 479.173 235.681 479.156 235.902C479.139 236.106 479.122 236.276 479.105 236.412H468.772C468.84 237.093 469.035 237.688 469.358 238.198C469.699 238.709 470.124 239.1 470.634 239.372C471.161 239.627 471.723 239.755 472.318 239.755C472.998 239.755 473.636 239.593 474.232 239.27C474.844 238.93 475.261 238.488 475.482 237.943L478.416 238.76C478.093 239.44 477.625 240.044 477.013 240.571C476.417 241.099 475.711 241.515 474.895 241.821C474.078 242.111 473.177 242.255 472.19 242.255ZM468.695 234.244H475.686C475.618 233.563 475.422 232.977 475.099 232.483C474.793 231.973 474.385 231.582 473.874 231.31C473.364 231.02 472.794 230.876 472.165 230.876C471.553 230.876 470.991 231.02 470.481 231.31C469.988 231.582 469.579 231.973 469.256 232.483C468.95 232.977 468.763 233.563 468.695 234.244ZM482.006 242V231.947H480.245V229.345H482.006V228.529C482.006 227.423 482.184 226.47 482.542 225.671C482.916 224.855 483.435 224.225 484.098 223.783C484.778 223.341 485.569 223.12 486.471 223.12C487.015 223.12 487.559 223.188 488.104 223.324C488.665 223.46 489.218 223.655 489.762 223.91L489.073 226.487C488.818 226.351 488.52 226.241 488.18 226.156C487.84 226.054 487.517 226.003 487.211 226.003C486.632 226.003 486.19 226.207 485.884 226.615C485.578 227.023 485.425 227.619 485.425 228.401V229.345H488.69V231.947H485.425V242H482.006ZM498.644 241.311C498.355 241.43 498.006 241.566 497.598 241.719C497.19 241.872 496.747 241.991 496.271 242.077C495.812 242.179 495.344 242.23 494.868 242.23C494.239 242.23 493.66 242.119 493.133 241.898C492.606 241.677 492.18 241.328 491.857 240.852C491.551 240.359 491.398 239.721 491.398 238.938V231.259H489.638V228.631H491.398V224.293H494.817V228.631H497.623V231.259H494.817V237.79C494.834 238.249 494.961 238.581 495.2 238.785C495.438 238.989 495.735 239.091 496.093 239.091C496.45 239.091 496.798 239.032 497.139 238.913C497.479 238.794 497.751 238.692 497.955 238.607L498.644 241.311Z" fill="white"/>
<g filter="url(#filter0_d_58_2)">
<path d="M608.645 345.181C608.679 341.677 612.698 339.715 615.481 341.844L632.903 355.172C635.713 357.322 634.822 361.763 631.4 362.662L622.329 365.046C621.751 365.198 621.211 365.47 620.745 365.844L615.355 370.177C612.558 372.426 608.404 370.411 608.439 366.822L608.645 345.181Z" fill="white"/>
</g>
<rect x="361" y="297" width="120" height="48" stroke="#FFF500" stroke-width="2" stroke-dasharray="26.93 26.93"/>
<circle cx="361.5" cy="297.5" r="3.25195" fill="white" stroke="black" stroke-width="0.496108"/>
<circle cx="361.5" cy="344.5" r="3.25195" fill="white" stroke="black" stroke-width="0.496108"/>
<circle cx="481.5" cy="296.5" r="3.25195" fill="white" stroke="black" stroke-width="0.496108"/>
<circle cx="481.5" cy="345.5" r="3.25195" fill="white" stroke="black" stroke-width="0.496108"/>
<path d="M366.726 324.942V319.255H380.967V324.942H366.726ZM398.309 340.969V333.966H384.585V328.373L400.33 308.163H404.607V328.326H408.743V333.966H404.607V340.969H398.309ZM390.883 328.326H399.014V317.704L390.883 328.326ZM437.05 321.229C437.05 323.986 436.517 326.446 435.452 328.608C434.418 330.739 432.977 332.415 431.128 333.637C429.311 334.859 427.243 335.47 424.924 335.47C422.605 335.47 420.522 334.859 418.673 333.637C416.856 332.415 415.414 330.739 414.349 328.608C413.315 326.446 412.798 323.986 412.798 321.229C412.798 318.472 413.315 316.028 414.349 313.897C415.414 311.735 416.856 310.043 418.673 308.821C420.522 307.568 422.605 306.941 424.924 306.941C427.243 306.941 429.311 307.568 431.128 308.821C432.977 310.043 434.418 311.735 435.452 313.897C436.517 316.028 437.05 318.472 437.05 321.229ZM430.705 321.229C430.705 319.537 430.454 318.064 429.953 316.811C429.483 315.526 428.809 314.524 427.932 313.803C427.055 313.082 426.052 312.722 424.924 312.722C423.765 312.722 422.746 313.082 421.869 313.803C420.992 314.524 420.302 315.526 419.801 316.811C419.331 318.064 419.096 319.537 419.096 321.229C419.096 322.921 419.331 324.394 419.801 325.647C420.302 326.9 420.992 327.887 421.869 328.608C422.746 329.329 423.765 329.689 424.924 329.689C426.052 329.689 427.039 329.329 427.885 328.608C428.762 327.887 429.452 326.9 429.953 325.647C430.454 324.362 430.705 322.89 430.705 321.229ZM448.765 315.401C447.324 315.401 446.024 315.088 444.864 314.461C443.705 313.803 442.765 312.941 442.044 311.876C441.355 310.779 441.01 309.573 441.01 308.257C441.01 306.941 441.355 305.75 442.044 304.685C442.765 303.588 443.705 302.727 444.864 302.1C446.024 301.473 447.324 301.16 448.765 301.16C450.207 301.16 451.507 301.473 452.666 302.1C453.857 302.727 454.797 303.588 455.486 304.685C456.176 305.75 456.52 306.941 456.52 308.257C456.52 309.573 456.176 310.779 455.486 311.876C454.797 312.941 453.857 313.803 452.666 314.461C451.507 315.088 450.207 315.401 448.765 315.401ZM448.765 312.252C449.392 312.252 449.956 312.064 450.457 311.688C450.959 311.312 451.35 310.826 451.632 310.231C451.946 309.636 452.102 308.993 452.102 308.304C452.102 307.552 451.946 306.878 451.632 306.283C451.319 305.688 450.912 305.218 450.41 304.873C449.909 304.497 449.361 304.309 448.765 304.309C448.139 304.309 447.575 304.497 447.073 304.873C446.572 305.218 446.165 305.688 445.851 306.283C445.569 306.878 445.428 307.536 445.428 308.257C445.428 308.978 445.585 309.651 445.898 310.278C446.212 310.873 446.619 311.359 447.12 311.735C447.622 312.08 448.17 312.252 448.765 312.252ZM466.907 335.47C465.466 335.47 464.166 335.157 463.006 334.53C461.847 333.903 460.907 333.057 460.186 331.992C459.497 330.895 459.152 329.689 459.152 328.373C459.152 327.026 459.497 325.819 460.186 324.754C460.907 323.689 461.847 322.843 463.006 322.216C464.166 321.558 465.466 321.229 466.907 321.229C468.349 321.229 469.649 321.558 470.808 322.216C471.999 322.843 472.939 323.689 473.628 324.754C474.318 325.819 474.662 327.01 474.662 328.326C474.662 329.642 474.318 330.848 473.628 331.945C472.939 333.01 471.999 333.872 470.808 334.53C469.649 335.157 468.349 335.47 466.907 335.47ZM466.907 332.321C467.534 332.321 468.098 332.133 468.599 331.757C469.101 331.381 469.492 330.895 469.774 330.3C470.088 329.705 470.244 329.062 470.244 328.373C470.244 327.621 470.088 326.947 469.774 326.352C469.492 325.757 469.085 325.287 468.552 324.942C468.051 324.566 467.503 324.378 466.907 324.378C466.312 324.378 465.748 324.566 465.215 324.942C464.714 325.287 464.307 325.772 463.993 326.399C463.711 326.994 463.57 327.637 463.57 328.326C463.57 329.078 463.727 329.752 464.04 330.347C464.354 330.942 464.761 331.428 465.262 331.804C465.764 332.149 466.312 332.321 466.907 332.321ZM443.689 332.791L456.896 317.328L469.116 301.254L471.983 303.792L459.105 319.02L446.509 335.329L443.689 332.791Z" fill="#2BC227"/>
</g>
<defs>
<filter id="filter0_d_58_2" x="602.769" y="340.962" width="37.4746" height="41.5017" filterUnits="userSpaceOnUse" color-interpolation-filters="sRGB">
<feFlood flood-opacity="0" result="BackgroundImageFix"/>
<feColorMatrix in="SourceAlpha" type="matrix" values="0 0 0 0 0 0 0 0 0 0 0 0 0 0 0 0 0 0 127 0" result="hardAlpha"/>
<feOffset dy="5.66981"/>
<feGaussianBlur stdDeviation="2.8349"/>
<feComposite in2="hardAlpha" operator="out"/>
<feColorMatrix type="matrix" values="0 0 0 0 0 0 0 0 0 0 0 0 0 0 0 0 0 0 0.25 0"/>
<feBlend mode="normal" in2="BackgroundImageFix" result="effect1_dropShadow_58_2"/>
<feBlend mode="normal" in="SourceGraphic" in2="effect1_dropShadow_58_2" result="shape"/>
</filter>
<clipPath id="clip0_58_2">
<rect width="844" height="500" rx="15" fill="white"/>
</clipPath>
</defs>
</svg>
