<svg width="1900" height="1900" viewBox="0 0 1900 1900" fill="none" xmlns="http://www.w3.org/2000/svg">
<ellipse cx="959.838" cy="1003.75" rx="748.806" ry="750.753" fill="#DAAD60"/>
<path d="M1023.99 1754.5C1003.25 1657.63 1007.84 1596.54 1009.59 1478.55C1076.55 1349.97 1146.3 1328.4 1275.45 1297.38C1333.09 1366.02 1362.41 1377.4 1411.68 1370.57L1436.89 1326.18C1385.8 1344.4 1355.38 1327.01 1323.46 1287.78L1436.89 1270.39L1411.68 1252.39C1218.96 1252.04 1181.55 1279.97 1077.4 1326.18C1137.71 1207.48 1192.2 1141.14 1453.69 1112.01C1511.62 1138.94 1549.53 1138.38 1638.53 1130.61V1101.82C1581.84 1118.34 1542.65 1109.34 1494.5 1092.22L1591.72 999.834L1578.52 982.437C1528.76 1019.52 1501.31 1040.18 1453.69 1076.62L1390.68 1092.22L1436.89 999.834L1390.68 1007.63C1376.42 1049.48 1361.02 1068.75 1331.26 1101.82C1267.2 1113.07 1226.13 1126.84 1159.62 1169.6C1179.79 1043.87 1187.63 1035.23 1171.02 1034.63L1151.82 1049.63C1133.3 1106.32 1130.73 1141.1 1112.21 1197.8C1061.49 1251.73 1034.02 1292.25 985.58 1370.57C972.909 1161.1 1019.59 1035.72 1094.58 834.314L1096.61 828.865C1228.45 710.219 1282.71 676.36 1372.67 625.501L1331.26 593.107L1204.33 684.29L1086.4 783.873L1077.4 723.283L1133.22 625.501C1147.04 604.418 1147.3 585.844 1135.02 564.762C1109.14 569.31 1091.31 590.272 1086.4 612.153L1064.2 662.094L1020.99 477.927L984.38 495.324C1026.81 611.879 1041.42 714.53 1039.59 814.467C984.044 1032.73 962.875 1094.96 935.768 1236.19L873.953 1080.22L927.966 917.649L894.358 909.85L845.146 1034.63L756.925 882.855L718.516 909.85C828.582 1091.38 891.952 1193.24 916.564 1370.57C806.631 1212.78 737.768 1130.13 593.687 999.834C573.517 835.156 600.667 755.343 629.695 580.509H591.286L539.674 857.66L495.863 796.47L476.659 823.466L539.674 909.85L546.876 960.841C459.136 914.007 409.024 888.923 317.621 846.861L299.617 882.855L390.838 930.247L299.617 953.642C299.617 953.642 278.497 978.881 279.212 984.837C281.012 999.834 332.625 999.834 332.625 999.834L429.847 945.244C591.347 1029.27 666.823 1114.02 815.739 1310.58L614.091 1253.59L533.072 1125.81L495.863 1121.01L582.284 1249.99L469.457 1217L444.851 1253.59L593.686 1284.18C571.839 1298.21 555.274 1306.22 516.268 1320.78V1353.17C560.287 1342.91 582.109 1328.38 634.496 1291.38C771.943 1329.98 835.743 1366.25 906.361 1478.55L890.758 1754.5H1023.99Z" fill="#514C39"/>
<path d="M758.716 426.974C774.236 469.931 740.883 499.38 709.944 511.746C738.91 534.894 761.545 582.857 702.546 617.247C650.865 647.371 618.957 631.632 603.936 608.738C587.959 636.669 556.415 659.914 511.261 632.428C474.807 610.239 463.484 585.967 464.538 566.068C439.843 566.81 413.788 557.338 405.498 529.195C392.219 484.116 431.816 446.411 462.664 433.552C445.022 404.963 430.603 356.562 449.018 340.441C467.639 324.138 513.515 339.615 546.522 359.826C557.516 333.733 584.991 307.195 622.591 309.572C669.788 312.556 683.174 352.3 680.178 384.187C708.62 379.437 744.573 387.828 758.716 426.974Z" fill="#4E6C50"/>
<path d="M720.604 437.753C732.784 471.334 706.608 494.355 682.326 504.022C705.06 522.119 722.824 559.613 676.52 586.497C635.959 610.046 610.917 597.742 599.128 579.845C586.589 601.68 561.833 619.851 526.395 598.365C497.784 581.018 488.898 562.044 489.725 546.488C470.344 547.068 449.895 539.663 443.389 517.663C432.967 482.423 464.044 452.948 488.255 442.895C474.409 420.546 463.092 382.709 477.544 370.106C492.159 357.362 528.164 369.46 554.068 385.26C562.697 364.862 584.26 344.117 613.769 345.975C650.811 348.307 661.316 379.377 658.965 404.305C681.287 400.591 709.504 407.151 720.604 437.753Z" fill="#41A848"/>
<path d="M1251.71 404.227C1254.57 458.93 1206.05 481.124 1166.25 484.552C1191.43 521.198 1200.7 584.121 1121.04 603.063C1051.26 619.656 1020.13 590.491 1010.86 558.989C982.812 585.486 938.53 601.19 896.288 553.934C862.185 515.783 857.642 483.987 865.777 461.515C837.184 453.775 810.587 433.838 810.87 398.654C811.324 342.296 869.879 312.798 909.748 308.773C899.456 269.822 899.758 209.255 926.496 197.159C953.536 184.927 1000.79 218.651 1031.62 253.332C1053.32 227.21 1094.08 206.311 1136.39 222.121C1189.5 241.967 1191.03 292.239 1176.49 327.794C1210.78 332.238 1249.11 354.378 1251.71 404.227Z" fill="#4E6C50"/>
<path d="M1204.16 403.493C1206.42 446.281 1168.42 463.624 1137.25 466.292C1156.99 494.965 1164.27 544.185 1101.89 558.975C1047.24 571.93 1022.85 549.107 1015.58 524.464C993.621 545.18 958.945 557.448 925.846 520.471C899.124 490.619 895.554 465.747 901.918 448.172C879.522 442.108 858.685 426.505 858.895 398.985C859.231 354.902 905.081 331.85 936.304 328.714C928.231 298.244 928.447 250.869 949.384 241.417C970.557 231.859 1007.57 258.253 1031.74 285.39C1048.72 264.965 1080.63 248.633 1113.78 261.013C1155.38 276.554 1156.6 315.876 1145.22 343.682C1172.08 347.17 1202.11 364.5 1204.16 403.493Z" fill="#41A848"/>
<path d="M1534.88 518.617C1537.05 560.16 1500.2 577.015 1469.97 579.619C1489.1 607.45 1496.14 655.236 1435.64 669.622C1382.65 682.223 1359.01 660.074 1351.97 636.15C1330.66 656.273 1297.04 668.199 1264.96 632.311C1239.06 603.338 1235.61 579.19 1241.78 562.124C1220.07 556.246 1199.87 541.105 1200.08 514.385C1200.42 473.288 1245.39 450.999 1278.8 446.582C1265.52 416.847 1262.6 370.026 1299.76 361.361C1328.13 354.745 1356.71 374.057 1374.87 396.531C1392.28 380.524 1419.34 369.873 1447.3 380.318C1487.63 395.389 1488.79 433.568 1477.75 460.57C1503.79 463.945 1532.9 480.759 1534.88 518.617Z" fill="#4E6C50"/>
<path d="M1498.77 518.059C1500.48 550.554 1471.63 563.726 1447.95 565.752C1462.94 587.527 1468.47 624.907 1421.1 636.139C1379.6 645.978 1361.07 628.645 1355.55 609.929C1338.87 625.662 1312.54 634.979 1287.4 606.898C1267.11 584.226 1264.4 565.338 1269.23 551.991C1252.22 547.386 1236.4 535.536 1236.56 514.636C1236.81 481.102 1271.75 463.592 1295.46 461.257C1289.63 438.412 1289.99 403.095 1305.28 394.972C1328.02 382.887 1355.39 402.333 1371.95 423.894C1385.5 410.624 1407.43 401.377 1430.13 409.854C1461.72 421.656 1462.64 451.52 1454.01 472.636C1474.4 475.285 1497.2 488.446 1498.77 518.059Z" fill="#41A848"/>
<path d="M376.598 1312.56C337.083 1308.67 326.447 1271.49 328.315 1242.59C299.315 1256.65 253.211 1256.46 248.29 1197.31C243.979 1145.5 268.264 1126.36 291.847 1123.14C275.904 1100.15 269.461 1066.71 307.917 1041.57C338.965 1021.28 362.246 1021.47 377.468 1029.75C386.121 1010.09 403.299 993.199 428.485 997.224C467.22 1003.41 481.821 1049.04 481.209 1081.21C511.171 1072.93 555.773 1076.87 558.635 1113.18C560.821 1140.9 538.507 1165.1 514.7 1179.03C527.315 1197.75 533.495 1224.81 519.64 1249.7C499.646 1285.61 463.451 1281.24 439.548 1266.96C432.638 1291.05 412.607 1316.11 376.598 1312.56Z" fill="#4E6C50"/>
<path d="M382.29 1278.56C351.379 1275.53 343.076 1246.42 344.551 1223.79C321.858 1234.82 285.79 1234.69 281.968 1188.38C278.62 1147.8 297.627 1132.8 316.078 1130.27C303.617 1112.28 298.592 1086.1 328.688 1066.39C352.986 1050.48 371.2 1050.63 383.104 1057.1C389.883 1041.7 403.329 1028.47 423.03 1031.61C454.64 1036.64 466.166 1072.12 464.977 1094.83C487.37 1092.6 520.647 1097.99 526.126 1113.58C534.278 1136.77 512.012 1159.81 489.295 1172.36C499.879 1187.04 505.468 1209.07 494.222 1229.27C478.564 1257.4 450.251 1253.99 431.558 1242.82C426.141 1261.69 410.458 1281.33 382.29 1278.56Z" fill="#41A848"/>
<path d="M1727.59 982.612C1703.92 1016.82 1664.46 1007.64 1638.94 991.227C1637.06 1024.94 1613.44 1067.07 1556.76 1041.48C1507.11 1019.07 1501.94 987.084 1510.99 963.848C1481.83 966.755 1447.92 955.641 1444.46 907.629C1441.67 868.868 1453.7 847.646 1469.02 837.914C1455.43 819.99 1448.69 795.661 1465.19 774.644C1490.57 742.319 1539.79 752.163 1568.94 769.088C1576.6 737.436 1602.91 698.594 1637.61 714.445C1664.11 726.547 1674.92 759.299 1675.56 788.188C1699.13 786.162 1727.06 794.27 1742.8 819.621C1765.51 856.203 1743.1 887.129 1717.86 901.755C1736.4 920.34 1749.17 951.439 1727.59 982.612Z" fill="#4E6C50"/>
<path d="M1699.35 960.099C1680.85 986.866 1649.96 979.657 1629.99 966.793C1628.54 993.186 1610.07 1026.15 1565.71 1006.09C1526.85 988.512 1522.78 963.472 1529.85 945.285C1507.03 947.544 1480.5 938.824 1477.76 901.234C1475.56 870.887 1484.96 854.28 1496.94 846.669C1486.29 832.629 1481.01 813.578 1493.91 797.134C1514.61 770.748 1552.96 778.241 1573.16 790.887C1582.5 769.24 1604.37 741.508 1621.44 744.422C1646.82 748.756 1656.6 780.873 1656.53 808.06C1675.36 805.839 1698.38 811.926 1711.16 832.505C1728.95 861.157 1711.43 885.356 1691.69 896.792C1706.21 911.353 1716.22 935.707 1699.35 960.099Z" fill="#41A848"/>
<path d="M1525.13 1350.18C1508.52 1374.18 1480.84 1367.74 1462.94 1356.23C1461.63 1379.87 1445.05 1409.43 1405.3 1391.48C1370.47 1375.75 1366.84 1353.32 1373.19 1337.02C1352.73 1339.06 1328.95 1331.26 1326.52 1297.58C1324.57 1270.39 1333 1255.51 1343.75 1248.68C1334.21 1236.11 1329.49 1219.04 1341.07 1204.3C1358.87 1181.62 1393.39 1188.53 1413.84 1200.4C1419.21 1178.2 1437.67 1150.95 1462.01 1162.07C1480.6 1170.56 1488.18 1193.54 1488.63 1213.8C1505.16 1212.38 1524.75 1218.07 1535.8 1235.85C1551.73 1261.51 1536.01 1283.2 1518.3 1293.46C1531.31 1306.5 1540.26 1328.32 1525.13 1350.18Z" fill="#4E6C50"/>
<path d="M1505.32 1334.39C1492.34 1353.17 1470.67 1348.11 1456.66 1339.09C1455.64 1357.6 1442.69 1380.73 1411.57 1366.65C1384.31 1354.32 1381.46 1336.76 1386.42 1324C1370.41 1325.58 1351.8 1319.47 1349.88 1293.1C1348.33 1271.81 1354.93 1260.16 1363.33 1254.82C1355.86 1244.97 1352.16 1231.61 1361.21 1220.08C1375.72 1201.57 1402.63 1206.82 1416.8 1215.69C1423.35 1200.51 1438.69 1181.06 1450.66 1183.1C1468.47 1186.14 1475.33 1208.67 1475.28 1227.74C1488.49 1226.18 1504.63 1230.45 1513.6 1244.89C1526.08 1264.99 1513.79 1281.96 1499.94 1289.98C1510.13 1300.2 1517.15 1317.28 1505.32 1334.39Z" fill="#41A848"/>
<path d="M1336.11 931.331C1346.71 972.792 1312.95 997.249 1282.99 1005.99C1307.91 1030.19 1324.69 1076.96 1266.58 1103.72C1215.68 1127.15 1187.35 1109.6 1175.41 1086.89C1158 1111.5 1126.5 1130.33 1086.88 1100.63C1054.89 1076.65 1046.52 1052.99 1049.3 1034.53C1026.21 1032.99 1002.77 1021.81 997.584 994.816C989.6 953.3 1030.45 921.717 1063.26 910.501C1043.84 883.197 1031.42 836.564 1067.15 820.305C1094.42 807.891 1127.15 821.586 1150.02 840.578C1164.34 820.909 1189.48 804.69 1219.79 809.567C1263.52 816.605 1272.42 854.878 1266.75 884.346C1293.69 882.48 1326.46 893.548 1336.11 931.331Z" fill="#4E6C50"/>
<path d="M1299.57 938.077C1307.88 970.504 1281.44 989.628 1257.98 996.462C1277.5 1015.39 1290.64 1051.97 1245.13 1072.89C1205.27 1091.21 1183.08 1077.48 1173.72 1059.72C1160.08 1078.96 1135.41 1093.69 1104.37 1070.45C1079.32 1051.69 1072.76 1033.19 1074.93 1018.75C1056.85 1017.55 1038.49 1008.8 1034.42 987.689C1027.89 953.815 1059.58 929.084 1083.03 921.93C1072.52 900.069 1065.74 864.375 1079.51 853.089C1100.01 836.298 1131.54 850.372 1152.61 868.767C1163.59 852.641 1183.84 838.875 1208.45 842.832C1242.7 848.342 1249.68 878.276 1245.24 901.322C1266.34 899.866 1292.01 908.525 1299.57 938.077Z" fill="#41A848"/>
<path d="M619.242 801.395C615.276 750.081 660.327 728.096 697.631 723.943C673.122 690.112 662.933 631.228 737.313 611.566C802.466 594.344 832.392 621.008 841.835 650.38C867.562 624.833 908.786 609.044 949.571 652.439C982.498 687.473 987.512 717.232 980.398 738.531C1007.44 745.13 1032.89 763.232 1033.45 796.287C1034.31 847.125 979.373 876.081 938.183 882.576C955.527 918.943 960.582 976.761 914.895 988.626C880.012 997.685 844.07 974.682 820.913 947.447C799.869 967.783 766.73 981.792 731.835 969.738C681.481 952.343 678.869 905.159 691.688 871.422C659.379 868.052 622.856 848.156 619.242 801.395Z" fill="#4E6C50"/>
<path d="M663.924 800.969C660.802 760.832 696.079 743.65 725.294 740.413C706.088 713.944 698.09 667.883 756.339 652.528C807.362 639.078 830.808 659.943 838.213 682.919C858.355 662.945 890.637 650.609 922.594 684.564C948.394 711.977 952.33 735.255 946.765 751.911C967.944 757.082 987.882 771.248 988.33 797.103C989.05 838.585 946.382 861.321 917.123 864.941C925.044 893.015 925.687 936.707 907.032 947.225C879.278 962.875 844.83 939.67 823.68 913.515C807.332 930.345 780.488 942.459 752.16 932.677C712.717 919.055 710.656 882.149 720.686 855.765C695.38 853.119 666.769 837.545 663.924 800.969Z" fill="#41A848"/>
<path d="M73.6105 834.379C69.6444 783.065 114.695 761.081 151.999 756.927C127.49 723.097 117.301 664.212 191.681 644.551C256.834 627.328 286.76 653.993 296.203 683.364C321.93 657.818 363.154 642.029 403.939 685.424C436.866 720.458 441.88 750.217 434.766 771.515C461.804 778.115 487.254 796.217 487.814 829.271C488.674 880.109 433.741 909.066 392.552 915.561C409.896 951.927 414.951 1009.75 369.263 1021.61C334.381 1030.67 298.439 1007.67 275.281 980.432C254.237 1000.77 221.098 1014.78 186.203 1002.72C135.849 985.327 133.237 938.144 146.056 904.406C113.747 901.037 77.2247 881.141 73.6105 834.379Z" fill="#4E6C50"/>
<path d="M118.292 833.953C115.169 793.816 150.446 776.634 179.662 773.397C160.456 746.928 152.457 700.868 210.706 685.512C261.729 672.062 285.176 692.927 292.581 715.903C312.723 695.93 345.005 683.593 376.962 717.548C402.762 744.961 406.698 768.239 401.133 784.895C422.311 790.066 442.249 804.233 442.698 830.087C443.418 871.57 400.75 894.305 371.491 897.925C379.412 926 380.054 969.691 361.4 980.209C333.646 995.859 299.197 972.654 278.048 946.499C261.699 963.329 234.856 975.443 206.528 965.661C167.085 952.039 165.024 915.133 175.053 888.749C149.748 886.103 121.137 870.53 118.292 833.953Z" fill="#41A848"/>
</svg>
